<svg
  width="200"
  height="200"
  viewBox="0 0 200 200"
  fill="none"
  xmlns="http://www.w3.org/2000/svg"
>
  <!-- Background Circle -->
  <circle cx="100" cy="100" r="90" fill="#0D47A1" stroke="#FFF" stroke-width="5"/>
  
  <!-- Landmasses -->
  <path d="M50 60 C70 30, 130 30, 150 60 C160 80, 120 110, 100 100 C80 90, 40 80, 50 60 Z" fill="#4CAF50"/>
  <path d="M120 140 C140 110, 180 110, 160 140 C150 160, 110 170, 120 140 Z" fill="#4CAF50"/>

  <!-- Water Waves -->
  <path d="M30 100 C50 90, 90 110, 120 100 C140 90, 180 110, 170 130 C160 150, 80 150, 50 130 C20 110, 10 110, 30 100 Z"
    fill="rgba(255, 255, 255, 0.3)" stroke="none"/>

  <!-- World Highlight -->
  <circle cx="100" cy="100" r="85" stroke="rgba(255,255,255,0.3)" stroke-width="3" fill="none"/>
  
  <!-- Stars -->
  <circle cx="30" cy="30" r="2" fill="white"/>
  <circle cx="170" cy="40" r="3" fill="white"/>
  <circle cx="50" cy="150" r="2.5" fill="white"/>
  <circle cx="180" cy="160" r="2" fill="white"/>
  
  <!-- Title "Worlds" -->
  <text x="50" y="190" fill="white" font-size="24px" font-weight="bold" font-family="Arial, sans-serif">
    WORLDS
  </text>
</svg>
